<mxfile host="app.diagrams.net" modified="2023-11-29T08:51:45.561Z" agent="Mozilla/5.0 (Windows NT 10.0; Win64; x64) AppleWebKit/537.36 (KHTML, like Gecko) Chrome/119.0.0.0 Safari/537.36 Edg/119.0.0.0" etag="yHDrAZ16rUjKpbytHypF" version="22.1.4" type="device">
  <diagram id="zssgmvdwZO7xPkAqMUr9" name="Page-1">
    <mxGraphModel dx="1504" dy="1464" grid="0" gridSize="10" guides="1" tooltips="1" connect="1" arrows="1" fold="1" page="1" pageScale="1" pageWidth="850" pageHeight="1100" math="0" shadow="0">
      <root>
        <mxCell id="0" />
        <mxCell id="1" parent="0" />
        <mxCell id="SsrnTv2k94DWv8KDChTj-48" style="edgeStyle=orthogonalEdgeStyle;rounded=0;orthogonalLoop=1;jettySize=auto;html=1;exitX=1;exitY=0.5;exitDx=0;exitDy=0;entryX=0;entryY=0.5;entryDx=0;entryDy=0;" parent="1" source="SsrnTv2k94DWv8KDChTj-44" target="e1DPj9sdgxrYpcnS9dOX-31" edge="1">
          <mxGeometry relative="1" as="geometry">
            <mxPoint x="-7" y="-270" as="targetPoint" />
          </mxGeometry>
        </mxCell>
        <mxCell id="SsrnTv2k94DWv8KDChTj-49" value="Input/Output variable" style="text;html=1;strokeColor=none;fillColor=none;align=center;verticalAlign=middle;whiteSpace=wrap;rounded=0;" parent="1" vertex="1">
          <mxGeometry x="-107" y="-303" width="104" height="30" as="geometry" />
        </mxCell>
        <mxCell id="SsrnTv2k94DWv8KDChTj-52" value="Bus Terminal" style="text;html=1;strokeColor=none;fillColor=none;align=center;verticalAlign=middle;whiteSpace=wrap;rounded=0;fontColor=#4D4D4D;" parent="1" vertex="1">
          <mxGeometry x="-107" y="-227" width="104" height="20" as="geometry" />
        </mxCell>
        <mxCell id="SsrnTv2k94DWv8KDChTj-53" value="" style="endArrow=none;html=1;rounded=0;" parent="1" edge="1">
          <mxGeometry width="50" height="50" relative="1" as="geometry">
            <mxPoint x="216" y="-210" as="sourcePoint" />
            <mxPoint x="216" y="-317" as="targetPoint" />
          </mxGeometry>
        </mxCell>
        <mxCell id="SsrnTv2k94DWv8KDChTj-54" value="" style="endArrow=classic;html=1;rounded=0;startArrow=none;" parent="1" source="SsrnTv2k94DWv8KDChTj-70" edge="1">
          <mxGeometry width="50" height="50" relative="1" as="geometry">
            <mxPoint x="220" y="-182" as="sourcePoint" />
            <mxPoint x="470" y="-187" as="targetPoint" />
          </mxGeometry>
        </mxCell>
        <mxCell id="SsrnTv2k94DWv8KDChTj-55" value="FMU1" style="text;html=1;strokeColor=none;fillColor=none;align=center;verticalAlign=middle;whiteSpace=wrap;rounded=0;" parent="1" vertex="1">
          <mxGeometry x="130" y="-315" width="60" height="30" as="geometry" />
        </mxCell>
        <mxCell id="SsrnTv2k94DWv8KDChTj-56" value="FMU2" style="text;html=1;strokeColor=none;fillColor=none;align=center;verticalAlign=middle;whiteSpace=wrap;rounded=0;" parent="1" vertex="1">
          <mxGeometry x="130" y="-285" width="60" height="30" as="geometry" />
        </mxCell>
        <mxCell id="SsrnTv2k94DWv8KDChTj-57" value="Bus Simulation" style="text;html=1;strokeColor=none;fillColor=none;align=center;verticalAlign=middle;whiteSpace=wrap;rounded=0;" parent="1" vertex="1">
          <mxGeometry x="110" y="-255" width="100" height="30" as="geometry" />
        </mxCell>
        <mxCell id="SsrnTv2k94DWv8KDChTj-59" value="" style="endArrow=none;html=1;rounded=0;" parent="1" edge="1">
          <mxGeometry width="50" height="50" relative="1" as="geometry">
            <mxPoint x="450" y="-270" as="sourcePoint" />
            <mxPoint x="220" y="-270.2" as="targetPoint" />
          </mxGeometry>
        </mxCell>
        <mxCell id="SsrnTv2k94DWv8KDChTj-60" value="" style="endArrow=none;html=1;rounded=0;" parent="1" edge="1">
          <mxGeometry width="50" height="50" relative="1" as="geometry">
            <mxPoint x="450" y="-300" as="sourcePoint" />
            <mxPoint x="220" y="-300.2" as="targetPoint" />
          </mxGeometry>
        </mxCell>
        <mxCell id="SsrnTv2k94DWv8KDChTj-61" value="" style="endArrow=none;html=1;rounded=0;" parent="1" edge="1">
          <mxGeometry width="50" height="50" relative="1" as="geometry">
            <mxPoint x="450" y="-240" as="sourcePoint" />
            <mxPoint x="220" y="-240.20000000000005" as="targetPoint" />
          </mxGeometry>
        </mxCell>
        <mxCell id="SsrnTv2k94DWv8KDChTj-62" value="t" style="text;html=1;strokeColor=none;fillColor=none;align=center;verticalAlign=middle;whiteSpace=wrap;rounded=0;" parent="1" vertex="1">
          <mxGeometry x="440" y="-212" width="20" height="20" as="geometry" />
        </mxCell>
        <mxCell id="SsrnTv2k94DWv8KDChTj-63" value="Data flow" style="text;html=1;strokeColor=none;fillColor=none;align=center;verticalAlign=middle;whiteSpace=wrap;rounded=0;" parent="1" vertex="1">
          <mxGeometry x="305" y="-340" width="60" height="30" as="geometry" />
        </mxCell>
        <mxCell id="SsrnTv2k94DWv8KDChTj-66" value="" style="ellipse;whiteSpace=wrap;html=1;aspect=fixed;fillColor=#000000;" parent="1" vertex="1">
          <mxGeometry x="260" y="-192" width="10" height="10" as="geometry" />
        </mxCell>
        <mxCell id="SsrnTv2k94DWv8KDChTj-67" value="" style="endArrow=none;html=1;rounded=0;" parent="1" target="SsrnTv2k94DWv8KDChTj-66" edge="1">
          <mxGeometry width="50" height="50" relative="1" as="geometry">
            <mxPoint x="220" y="-187" as="sourcePoint" />
            <mxPoint x="530" y="-182" as="targetPoint" />
          </mxGeometry>
        </mxCell>
        <mxCell id="SsrnTv2k94DWv8KDChTj-69" style="edgeStyle=orthogonalEdgeStyle;rounded=0;orthogonalLoop=1;jettySize=auto;html=1;" parent="1" edge="1">
          <mxGeometry relative="1" as="geometry">
            <mxPoint x="265" y="-295" as="sourcePoint" />
            <mxPoint x="265.05" y="-275" as="targetPoint" />
          </mxGeometry>
        </mxCell>
        <mxCell id="SsrnTv2k94DWv8KDChTj-70" value="" style="ellipse;whiteSpace=wrap;html=1;aspect=fixed;fillColor=#000000;" parent="1" vertex="1">
          <mxGeometry x="400" y="-192" width="10" height="10" as="geometry" />
        </mxCell>
        <mxCell id="SsrnTv2k94DWv8KDChTj-71" value="" style="endArrow=none;html=1;rounded=0;startArrow=none;" parent="1" source="SsrnTv2k94DWv8KDChTj-76" target="SsrnTv2k94DWv8KDChTj-70" edge="1">
          <mxGeometry width="50" height="50" relative="1" as="geometry">
            <mxPoint x="270" y="-187" as="sourcePoint" />
            <mxPoint x="590" y="-187" as="targetPoint" />
          </mxGeometry>
        </mxCell>
        <mxCell id="SsrnTv2k94DWv8KDChTj-72" style="edgeStyle=orthogonalEdgeStyle;rounded=0;orthogonalLoop=1;jettySize=auto;html=1;" parent="1" edge="1">
          <mxGeometry relative="1" as="geometry">
            <mxPoint x="405" y="-295" as="sourcePoint" />
            <mxPoint x="404.9699999999999" y="-275" as="targetPoint" />
          </mxGeometry>
        </mxCell>
        <mxCell id="SsrnTv2k94DWv8KDChTj-76" value="" style="ellipse;whiteSpace=wrap;html=1;aspect=fixed;fillColor=#FF0000;" parent="1" vertex="1">
          <mxGeometry x="330" y="-191.5" width="10" height="10" as="geometry" />
        </mxCell>
        <mxCell id="SsrnTv2k94DWv8KDChTj-77" value="" style="endArrow=none;html=1;rounded=0;startArrow=none;" parent="1" source="SsrnTv2k94DWv8KDChTj-73" target="SsrnTv2k94DWv8KDChTj-76" edge="1">
          <mxGeometry width="50" height="50" relative="1" as="geometry">
            <mxPoint x="270" y="-186.99999999999977" as="sourcePoint" />
            <mxPoint x="400" y="-186.99999999999977" as="targetPoint" />
          </mxGeometry>
        </mxCell>
        <mxCell id="SsrnTv2k94DWv8KDChTj-73" value="" style="ellipse;whiteSpace=wrap;html=1;aspect=fixed;fillColor=#FF0000;" parent="1" vertex="1">
          <mxGeometry x="305" y="-192" width="10" height="10" as="geometry" />
        </mxCell>
        <mxCell id="SsrnTv2k94DWv8KDChTj-81" value="" style="endArrow=none;html=1;rounded=0;startArrow=none;" parent="1" source="SsrnTv2k94DWv8KDChTj-66" target="SsrnTv2k94DWv8KDChTj-73" edge="1">
          <mxGeometry width="50" height="50" relative="1" as="geometry">
            <mxPoint x="270" y="-186.99999999999977" as="sourcePoint" />
            <mxPoint x="320.0000000000359" y="-186.99999999999977" as="targetPoint" />
          </mxGeometry>
        </mxCell>
        <mxCell id="SsrnTv2k94DWv8KDChTj-82" value="" style="ellipse;whiteSpace=wrap;html=1;aspect=fixed;fillColor=#FF0000;" parent="1" vertex="1">
          <mxGeometry x="215" y="-135.5" width="10" height="10" as="geometry" />
        </mxCell>
        <mxCell id="SsrnTv2k94DWv8KDChTj-84" value="" style="ellipse;whiteSpace=wrap;html=1;aspect=fixed;fillColor=#000000;" parent="1" vertex="1">
          <mxGeometry x="215" y="-119" width="10" height="10" as="geometry" />
        </mxCell>
        <mxCell id="SsrnTv2k94DWv8KDChTj-85" value="Communication Point" style="text;html=1;strokeColor=none;fillColor=none;align=center;verticalAlign=middle;whiteSpace=wrap;rounded=0;" parent="1" vertex="1">
          <mxGeometry x="230" y="-121.5" width="120" height="15" as="geometry" />
        </mxCell>
        <mxCell id="e1DPj9sdgxrYpcnS9dOX-5" value="" style="endArrow=classic;html=1;rounded=0;fontSize=4;entryX=0.5;entryY=1;entryDx=0;entryDy=0;exitX=0.5;exitY=0;exitDx=0;exitDy=0;strokeColor=#FF3333;" parent="1" source="e1DPj9sdgxrYpcnS9dOX-4" target="e1DPj9sdgxrYpcnS9dOX-3" edge="1">
          <mxGeometry width="50" height="50" relative="1" as="geometry">
            <mxPoint x="-80" y="-210" as="sourcePoint" />
            <mxPoint x="-30" y="-260" as="targetPoint" />
          </mxGeometry>
        </mxCell>
        <mxCell id="e1DPj9sdgxrYpcnS9dOX-12" value="" style="endArrow=classic;html=1;rounded=0;fontSize=4;exitX=0.5;exitY=1;exitDx=0;exitDy=0;entryX=0.5;entryY=0;entryDx=0;entryDy=0;strokeColor=#0000CC;" parent="1" source="e1DPj9sdgxrYpcnS9dOX-10" target="e1DPj9sdgxrYpcnS9dOX-11" edge="1">
          <mxGeometry x="-1" y="10" width="50" height="50" relative="1" as="geometry">
            <mxPoint x="-160" y="-230" as="sourcePoint" />
            <mxPoint x="-160" y="-190" as="targetPoint" />
            <mxPoint as="offset" />
          </mxGeometry>
        </mxCell>
        <mxCell id="e1DPj9sdgxrYpcnS9dOX-13" value="" style="endArrow=classic;html=1;rounded=0;fontSize=4;exitX=0.5;exitY=1;exitDx=0;exitDy=0;strokeColor=#0000CC;" parent="1" edge="1">
          <mxGeometry x="-1" y="10" width="50" height="50" relative="1" as="geometry">
            <mxPoint x="309.76" y="-298" as="sourcePoint" />
            <mxPoint x="309.96" y="-240" as="targetPoint" />
            <mxPoint as="offset" />
          </mxGeometry>
        </mxCell>
        <mxCell id="e1DPj9sdgxrYpcnS9dOX-17" value="" style="endArrow=classic;html=1;rounded=0;fontSize=4;entryX=0.5;entryY=1;entryDx=0;entryDy=0;exitX=0.5;exitY=0;exitDx=0;exitDy=0;strokeColor=#66FF66;" parent="1" source="e1DPj9sdgxrYpcnS9dOX-15" target="e1DPj9sdgxrYpcnS9dOX-16" edge="1">
          <mxGeometry width="50" height="50" relative="1" as="geometry">
            <mxPoint x="-105" y="-187" as="sourcePoint" />
            <mxPoint x="-105" y="-230" as="targetPoint" />
          </mxGeometry>
        </mxCell>
        <mxCell id="e1DPj9sdgxrYpcnS9dOX-19" value="" style="endArrow=classic;html=1;rounded=0;fontSize=4;entryX=0.5;entryY=1;entryDx=0;entryDy=0;strokeColor=#66FF66;" parent="1" edge="1">
          <mxGeometry width="50" height="50" relative="1" as="geometry">
            <mxPoint x="335.07" y="-240.5" as="sourcePoint" />
            <mxPoint x="334.83" y="-298.5" as="targetPoint" />
          </mxGeometry>
        </mxCell>
        <mxCell id="e1DPj9sdgxrYpcnS9dOX-20" value="" style="endArrow=classic;html=1;rounded=0;fontSize=4;exitX=0.5;exitY=1;exitDx=0;exitDy=0;entryX=0.5;entryY=0;entryDx=0;entryDy=0;strokeColor=#FF3333;" parent="1" edge="1">
          <mxGeometry width="50" height="50" relative="1" as="geometry">
            <mxPoint x="-185.2" y="-240" as="sourcePoint" />
            <mxPoint x="-185.2" y="-197" as="targetPoint" />
          </mxGeometry>
        </mxCell>
        <mxCell id="e1DPj9sdgxrYpcnS9dOX-42" value="" style="endArrow=classic;html=1;rounded=0;fontSize=4;entryX=0.5;entryY=1;entryDx=0;entryDy=0;exitX=0.5;exitY=0;exitDx=0;exitDy=0;strokeColor=#FF3333;" parent="1" source="e1DPj9sdgxrYpcnS9dOX-37" target="e1DPj9sdgxrYpcnS9dOX-32" edge="1">
          <mxGeometry x="0.5349" y="-165" width="50" height="50" relative="1" as="geometry">
            <mxPoint x="-105" y="-187" as="sourcePoint" />
            <mxPoint x="-105" y="-230" as="targetPoint" />
            <mxPoint as="offset" />
          </mxGeometry>
        </mxCell>
        <mxCell id="e1DPj9sdgxrYpcnS9dOX-43" value="" style="endArrow=classic;html=1;rounded=0;fontSize=4;exitX=0.5;exitY=1;exitDx=0;exitDy=0;entryX=0.5;entryY=0;entryDx=0;entryDy=0;strokeColor=#FF3333;" parent="1" edge="1">
          <mxGeometry x="-0.0698" y="145" width="50" height="50" relative="1" as="geometry">
            <mxPoint x="4.7599999999999625" y="-240" as="sourcePoint" />
            <mxPoint x="4.7599999999999625" y="-197" as="targetPoint" />
            <mxPoint as="offset" />
          </mxGeometry>
        </mxCell>
        <mxCell id="e1DPj9sdgxrYpcnS9dOX-44" value="" style="endArrow=classic;html=1;rounded=0;fontSize=4;exitX=0.5;exitY=1;exitDx=0;exitDy=0;entryX=0.5;entryY=0;entryDx=0;entryDy=0;strokeColor=#0000CC;" parent="1" edge="1">
          <mxGeometry x="-1" y="10" width="50" height="50" relative="1" as="geometry">
            <mxPoint x="24.80000000000001" y="-240" as="sourcePoint" />
            <mxPoint x="24.80000000000001" y="-197" as="targetPoint" />
            <mxPoint as="offset" />
          </mxGeometry>
        </mxCell>
        <mxCell id="e1DPj9sdgxrYpcnS9dOX-45" value="" style="endArrow=classic;html=1;rounded=0;fontSize=4;entryX=0.5;entryY=1;entryDx=0;entryDy=0;exitX=0.5;exitY=0;exitDx=0;exitDy=0;strokeColor=#66FF66;" parent="1" edge="1">
          <mxGeometry width="50" height="50" relative="1" as="geometry">
            <mxPoint x="54.80000000000001" y="-197" as="sourcePoint" />
            <mxPoint x="54.80000000000001" y="-240" as="targetPoint" />
          </mxGeometry>
        </mxCell>
        <mxCell id="e1DPj9sdgxrYpcnS9dOX-46" value="" style="ellipse;whiteSpace=wrap;html=1;fontSize=4;fillColor=none;strokeColor=#4D4D4D;" parent="1" vertex="1">
          <mxGeometry x="-10" y="-222" width="100" height="10" as="geometry" />
        </mxCell>
        <mxCell id="e1DPj9sdgxrYpcnS9dOX-49" value="" style="ellipse;whiteSpace=wrap;html=1;fontSize=4;fillColor=none;strokeColor=#4D4D4D;" parent="1" vertex="1">
          <mxGeometry x="-200" y="-222" width="100" height="10" as="geometry" />
        </mxCell>
        <mxCell id="e1DPj9sdgxrYpcnS9dOX-50" value="" style="endArrow=classic;html=1;rounded=0;fontSize=4;strokeColor=#FF3333;" parent="1" edge="1">
          <mxGeometry x="-0.0698" y="145" width="50" height="50" relative="1" as="geometry">
            <mxPoint x="265" y="-300" as="sourcePoint" />
            <mxPoint x="265" y="-220" as="targetPoint" />
            <mxPoint as="offset" />
            <Array as="points" />
          </mxGeometry>
        </mxCell>
        <mxCell id="e1DPj9sdgxrYpcnS9dOX-53" value="Importer" style="text;html=1;strokeColor=none;fillColor=none;align=center;verticalAlign=middle;whiteSpace=wrap;rounded=0;" parent="1" vertex="1">
          <mxGeometry x="110" y="-232" width="100" height="30" as="geometry" />
        </mxCell>
        <mxCell id="e1DPj9sdgxrYpcnS9dOX-56" value="" style="endArrow=none;html=1;rounded=0;" parent="1" edge="1">
          <mxGeometry width="50" height="50" relative="1" as="geometry">
            <mxPoint x="450" y="-217.14" as="sourcePoint" />
            <mxPoint x="220" y="-217.34000000000026" as="targetPoint" />
          </mxGeometry>
        </mxCell>
        <mxCell id="e1DPj9sdgxrYpcnS9dOX-60" value="Bus Communication Point" style="text;html=1;strokeColor=none;fillColor=none;align=center;verticalAlign=middle;whiteSpace=wrap;rounded=0;" parent="1" vertex="1">
          <mxGeometry x="229.5" y="-138" width="145" height="15" as="geometry" />
        </mxCell>
        <mxCell id="e1DPj9sdgxrYpcnS9dOX-61" value="Tx time announcement" style="text;html=1;strokeColor=none;fillColor=none;align=center;verticalAlign=middle;whiteSpace=wrap;rounded=0;" parent="1" vertex="1">
          <mxGeometry x="230" y="-170" width="125" height="15" as="geometry" />
        </mxCell>
        <mxCell id="e1DPj9sdgxrYpcnS9dOX-63" value="" style="endArrow=classic;html=1;rounded=0;fontSize=4;strokeColor=#FF3333;" parent="1" edge="1">
          <mxGeometry x="-0.0698" y="145" width="50" height="50" relative="1" as="geometry">
            <mxPoint x="210.33" y="-162.64" as="sourcePoint" />
            <mxPoint x="225.00000000000003" y="-162.64" as="targetPoint" />
            <mxPoint as="offset" />
            <Array as="points" />
          </mxGeometry>
        </mxCell>
        <mxCell id="e1DPj9sdgxrYpcnS9dOX-64" value="" style="endArrow=classic;html=1;rounded=0;fontSize=4;strokeColor=#FF3333;" parent="1" edge="1">
          <mxGeometry x="-0.0698" y="145" width="50" height="50" relative="1" as="geometry">
            <mxPoint x="310" y="-240" as="sourcePoint" />
            <mxPoint x="310" y="-220" as="targetPoint" />
            <mxPoint as="offset" />
            <Array as="points" />
          </mxGeometry>
        </mxCell>
        <mxCell id="e1DPj9sdgxrYpcnS9dOX-65" value="" style="endArrow=classic;html=1;rounded=0;fontSize=4;strokeColor=#66FF66;" parent="1" edge="1">
          <mxGeometry width="50" height="50" relative="1" as="geometry">
            <mxPoint x="335" y="-240" as="sourcePoint" />
            <mxPoint x="335" y="-269.5" as="targetPoint" />
          </mxGeometry>
        </mxCell>
        <mxCell id="pcoDvLVg_mD4zauNFNon-1" value="" style="endArrow=baseDash;startArrow=baseDash;html=1;rounded=0;strokeColor=#FF0000;dashed=1;startFill=0;endFill=0;" parent="1" edge="1">
          <mxGeometry width="50" height="50" relative="1" as="geometry">
            <mxPoint x="265" y="-210" as="sourcePoint" />
            <mxPoint x="311" y="-210" as="targetPoint" />
          </mxGeometry>
        </mxCell>
        <mxCell id="pcoDvLVg_mD4zauNFNon-2" value="" style="endArrow=baseDash;startArrow=baseDash;html=1;rounded=0;strokeColor=#FF0000;dashed=1;startFill=0;endFill=0;" parent="1" edge="1">
          <mxGeometry width="50" height="50" relative="1" as="geometry">
            <mxPoint x="212" y="-148" as="sourcePoint" />
            <mxPoint x="224" y="-148" as="targetPoint" />
          </mxGeometry>
        </mxCell>
        <mxCell id="pcoDvLVg_mD4zauNFNon-3" value="Tx countdown time&amp;nbsp;" style="text;html=1;strokeColor=none;fillColor=none;align=center;verticalAlign=middle;whiteSpace=wrap;rounded=0;" parent="1" vertex="1">
          <mxGeometry x="231" y="-155" width="109" height="15" as="geometry" />
        </mxCell>
        <mxCell id="pcoDvLVg_mD4zauNFNon-4" value="" style="endArrow=baseDash;startArrow=baseDash;html=1;rounded=0;strokeColor=#FF0000;dashed=1;startFill=0;endFill=0;" parent="1" edge="1">
          <mxGeometry width="50" height="50" relative="1" as="geometry">
            <mxPoint x="311" y="-200" as="sourcePoint" />
            <mxPoint x="336.5" y="-200" as="targetPoint" />
          </mxGeometry>
        </mxCell>
        <mxCell id="SsrnTv2k94DWv8KDChTj-44" value="FMU1" style="rounded=1;whiteSpace=wrap;html=1;strokeColor=#999999;" parent="1" vertex="1">
          <mxGeometry x="-200" y="-300" width="100" height="60" as="geometry" />
        </mxCell>
        <mxCell id="SsrnTv2k94DWv8KDChTj-46" value="Bus Simulation" style="rounded=1;whiteSpace=wrap;html=1;strokeColor=#999999;" parent="1" vertex="1">
          <mxGeometry x="-200" y="-197" width="290" height="37" as="geometry" />
        </mxCell>
        <mxCell id="e1DPj9sdgxrYpcnS9dOX-3" value="Rx_Clock" style="text;html=1;strokeColor=none;fillColor=none;align=center;verticalAlign=middle;whiteSpace=wrap;rounded=0;fontSize=4;" parent="1" vertex="1">
          <mxGeometry x="-130" y="-250" width="30" height="10" as="geometry" />
        </mxCell>
        <mxCell id="e1DPj9sdgxrYpcnS9dOX-4" value="Tx_Clock" style="text;html=1;strokeColor=none;fillColor=none;align=center;verticalAlign=middle;whiteSpace=wrap;rounded=0;fontSize=4;" parent="1" vertex="1">
          <mxGeometry x="-130" y="-197" width="30" height="10" as="geometry" />
        </mxCell>
        <mxCell id="e1DPj9sdgxrYpcnS9dOX-8" value="Tx_Clock" style="text;html=1;strokeColor=none;fillColor=none;align=center;verticalAlign=middle;whiteSpace=wrap;rounded=0;fontSize=4;" parent="1" vertex="1">
          <mxGeometry x="-200" y="-250" width="30" height="10" as="geometry" />
        </mxCell>
        <mxCell id="e1DPj9sdgxrYpcnS9dOX-9" value="Rx_Clock" style="text;html=1;strokeColor=none;fillColor=none;align=center;verticalAlign=middle;whiteSpace=wrap;rounded=0;fontSize=4;" parent="1" vertex="1">
          <mxGeometry x="-200" y="-197" width="30" height="10" as="geometry" />
        </mxCell>
        <mxCell id="e1DPj9sdgxrYpcnS9dOX-10" value="Tx_Data" style="text;html=1;strokeColor=none;fillColor=none;align=center;verticalAlign=middle;whiteSpace=wrap;rounded=0;fontSize=4;" parent="1" vertex="1">
          <mxGeometry x="-180" y="-250" width="30" height="10" as="geometry" />
        </mxCell>
        <mxCell id="e1DPj9sdgxrYpcnS9dOX-11" value="Rx_Data" style="text;html=1;strokeColor=none;fillColor=none;align=center;verticalAlign=middle;whiteSpace=wrap;rounded=0;fontSize=4;" parent="1" vertex="1">
          <mxGeometry x="-180" y="-197" width="30" height="10" as="geometry" />
        </mxCell>
        <mxCell id="e1DPj9sdgxrYpcnS9dOX-15" value="Tx_Data" style="text;html=1;strokeColor=none;fillColor=none;align=center;verticalAlign=middle;whiteSpace=wrap;rounded=0;fontSize=4;" parent="1" vertex="1">
          <mxGeometry x="-150" y="-197" width="30" height="10" as="geometry" />
        </mxCell>
        <mxCell id="e1DPj9sdgxrYpcnS9dOX-16" value="Rx_Data" style="text;html=1;strokeColor=none;fillColor=none;align=center;verticalAlign=middle;whiteSpace=wrap;rounded=0;fontSize=4;" parent="1" vertex="1">
          <mxGeometry x="-150" y="-250" width="30" height="10" as="geometry" />
        </mxCell>
        <mxCell id="e1DPj9sdgxrYpcnS9dOX-31" value="FMU2" style="rounded=1;whiteSpace=wrap;html=1;strokeColor=#999999;" parent="1" vertex="1">
          <mxGeometry x="-10" y="-300" width="100" height="60" as="geometry" />
        </mxCell>
        <mxCell id="e1DPj9sdgxrYpcnS9dOX-32" value="Rx_Clock" style="text;html=1;strokeColor=none;fillColor=none;align=center;verticalAlign=middle;whiteSpace=wrap;rounded=0;fontSize=4;" parent="1" vertex="1">
          <mxGeometry x="60" y="-250" width="30" height="10" as="geometry" />
        </mxCell>
        <mxCell id="e1DPj9sdgxrYpcnS9dOX-33" value="Tx_Clock" style="text;html=1;strokeColor=none;fillColor=none;align=center;verticalAlign=middle;whiteSpace=wrap;rounded=0;fontSize=4;" parent="1" vertex="1">
          <mxGeometry x="-10" y="-250" width="30" height="10" as="geometry" />
        </mxCell>
        <mxCell id="e1DPj9sdgxrYpcnS9dOX-34" value="Tx_Data" style="text;html=1;strokeColor=none;fillColor=none;align=center;verticalAlign=middle;whiteSpace=wrap;rounded=0;fontSize=4;" parent="1" vertex="1">
          <mxGeometry x="10" y="-250" width="30" height="10" as="geometry" />
        </mxCell>
        <mxCell id="e1DPj9sdgxrYpcnS9dOX-35" value="Rx_Clock" style="text;html=1;strokeColor=none;fillColor=none;align=center;verticalAlign=middle;whiteSpace=wrap;rounded=0;fontSize=4;" parent="1" vertex="1">
          <mxGeometry x="40" y="-250" width="30" height="10" as="geometry" />
        </mxCell>
        <mxCell id="e1DPj9sdgxrYpcnS9dOX-37" value="Tx_Clock" style="text;html=1;strokeColor=none;fillColor=none;align=center;verticalAlign=middle;whiteSpace=wrap;rounded=0;fontSize=4;" parent="1" vertex="1">
          <mxGeometry x="60" y="-197" width="30" height="10" as="geometry" />
        </mxCell>
        <mxCell id="e1DPj9sdgxrYpcnS9dOX-38" value="Rx_Clock" style="text;html=1;strokeColor=none;fillColor=none;align=center;verticalAlign=middle;whiteSpace=wrap;rounded=0;fontSize=4;" parent="1" vertex="1">
          <mxGeometry x="-10" y="-197" width="30" height="10" as="geometry" />
        </mxCell>
        <mxCell id="e1DPj9sdgxrYpcnS9dOX-39" value="Rx_Data" style="text;html=1;strokeColor=none;fillColor=none;align=center;verticalAlign=middle;whiteSpace=wrap;rounded=0;fontSize=4;" parent="1" vertex="1">
          <mxGeometry x="10" y="-197" width="30" height="10" as="geometry" />
        </mxCell>
        <mxCell id="e1DPj9sdgxrYpcnS9dOX-40" value="Tx_Data" style="text;html=1;strokeColor=none;fillColor=none;align=center;verticalAlign=middle;whiteSpace=wrap;rounded=0;fontSize=4;" parent="1" vertex="1">
          <mxGeometry x="40" y="-197" width="30" height="10" as="geometry" />
        </mxCell>
      </root>
    </mxGraphModel>
  </diagram>
</mxfile>
